# xmcd
#
# Track frame offsets: 
#        150
#        15825
#        31585
#        50487
#        66385
#        104076
#        116936
#        129829
#        144386
#        159526
#        175360
#        196797
#        208835
#        219518
#        233546
#        246825
#        260894
#        272587
#        288400
#        303788
#        316315
#
# Disc length: 4403 seconds
#
# Revision: 0
# Processed by: cddbd v1.5.2PL0 Copyright (c) Steve Scherf et al.
# Submitted via: ExactAudioCopy v1.1
#
DISCID=30113115
DTITLE=Various Artist - Spring Break 2019 - CD 1
DYEAR=2019
DGENRE=Pop
TTITLE0=Calvin Harris and Rag'n'Bone Man - Giant (Purple Disco Machine R
TTITLE0=emix)
TTITLE1=Robin Schulz Feat. Erika Sirola - Speechless
TTITLE2=Mark Ronson Feat. Miley Cyrus - Nothing Breaks Like A Heart (M
TTITLE2=artin Solveig Remix)
TTITLE3=Duke Dumont Feat. Shaun Ross - Red Light Green Light
TTITLE4=Agoria Feat. Blasé - You'Re Not Alone (Solomun Remix)
TTITLE5=Regi and Milo Meskens - Ordinary (Brieuc and Gregor Potter Remix)
TTITLE6=Arty - Save Me Tonight
TTITLE7=CamelPhat X Cristoph Feat. Jem Cooke - Breathe
TTITLE8=EDX - Who Cares
TTITLE9=Lea Rue - Watching You (Gaillard Remix)
TTITLE10=Finn - Sometimes The Going Gets A Little Tough
TTITLE11=Don Diablo Feat. Nate Dogg - I Got Love
TTITLE12=Eddie Thoneick and Kurd Maverick Feat. Errol Reid - Lonely
TTITLE13=Joe Stone - Bug A Boo
TTITLE14=M-22 - White Lies
TTITLE15=Jax Jones And Years and Years - Play
TTITLE16=Curtis Alto - Sunday
TTITLE17=Kygo Feat. Sandro Cavazza - Happy Now
TTITLE18=Henri PFR Feat. Susan H - Easy
TTITLE19=Dimitri Vegas and Like Mike Feat. Era Istrefi - Selfish
TTITLE20=Lost Frequencies Feat. Flynn - Recognise
EXTD=
EXTT0=
EXTT1=
EXTT2=
EXTT3=
EXTT4=
EXTT5=
EXTT6=
EXTT7=
EXTT8=
EXTT9=
EXTT10=
EXTT11=
EXTT12=
EXTT13=
EXTT14=
EXTT15=
EXTT16=
EXTT17=
EXTT18=
EXTT19=
EXTT20=
PLAYORDER=
